<?xml version="1.0" standalone="no"?><!DOCTYPE svg PUBLIC "-//W3C//DTD SVG 1.1//EN" "http://www.w3.org/Graphics/SVG/1.1/DTD/svg11.dtd"><svg t="1716053834785" class="icon" viewBox="0 0 1024 1024" version="1.1" xmlns="http://www.w3.org/2000/svg" p-id="6197" xmlns:xlink="http://www.w3.org/1999/xlink" width="200" height="200"><path d="M759.149714 950.857143h-51.2a49.005714 49.005714 0 0 1-48.932571-49.005714v-6.582858a177.956571 177.956571 0 0 1-26.989714-15.652571l-16.603429 9.435429a50.176 50.176 0 0 1-66.852571-17.92l-25.746286-45.787429a49.590857 49.590857 0 0 1 17.92-66.852571l16.603428-9.728a133.046857 133.046857 0 0 1 0-15.945143 135.533714 135.533714 0 0 1 0-15.725715l-16.603428-9.728a49.225143 49.225143 0 0 1-17.92-66.852571l25.746286-44.836571a49.883429 49.883429 0 0 1 66.852571-17.92l16.603429 9.728c8.484571-6.217143 17.554286-11.556571 27.062857-16.018286v-6.582857a48.64 48.64 0 0 1 48.566857-48.932572h51.492571c27.062857 0 48.932571 21.942857 48.932572 49.005715v6.582857c9.435429 4.388571 18.285714 9.728 26.697143 15.945143l16.896-10.020572a50.468571 50.468571 0 0 1 66.852571 18.212572l25.746286 44.836571a49.225143 49.225143 0 0 1-18.212572 66.852571l-16.310857 9.728c1.243429 10.459429 1.243429 20.992 0 31.378286l16.603429 9.728c23.405714 13.677714 31.451429 43.666286 17.92 67.145143l-25.746286 44.836571a49.298286 49.298286 0 0 1-66.852571 18.285715l-16.896-9.801143a160.987429 160.987429 0 0 1-26.697143 15.725714v6.582857a49.005714 49.005714 0 0 1-49.005715 49.883429z m-121.124571-129.609143l12.507428 10.971429c11.995429 10.532571 25.819429 18.724571 40.813715 24.137142l15.36 5.705143v38.253715l53.686857 2.56a2.852571 2.852571 0 0 0 2.486857-2.56v-38.253715l15.36-5.632c14.994286-5.558857 28.818286-13.750857 40.813714-24.137143l12.580572-10.971428 44.544 25.965714 28.891428-45.494857-47.396571-29.476571 2.779428-16.018286a112.64 112.64 0 0 0 0-47.981714l-2.779428-16.018286 44.251428-25.746286-24.868571-48.274286-47.616 24.795429-12.580571-10.678857a130.925714 130.925714 0 0 0-40.813715-24.137143l-15.652571-5.705143v-38.253714l-53.686857-2.486857-2.194286 40.740571-15.36 5.632a127.414857 127.414857 0 0 0-40.813714 24.137143l-12.507429 10.752-44.909714-25.746286-28.525714 45.494857 44.836571 29.476572-2.779429 16.018286a123.611429 123.611429 0 0 0 0 47.981714l2.779429 16.018286-43.885714 25.746285 24.722285 48.64 49.956572-25.453714z m94.134857-7.533714a81.554286 81.554286 0 1 1 1.243429-163.108572 81.554286 81.554286 0 0 1-1.243429 163.108572z m0-116.077715a34.816 34.816 0 1 0 1.901714 69.632 34.816 34.816 0 0 0-1.901714-69.632z" p-id="6198" fill="#2c2c2c"></path><path d="M817.152 204.361143A454.436571 454.436571 0 0 0 592.164571 80.457143a555.52 555.52 0 0 0-179.492571 0c-67.657143 14.701714-130.925714 45.275429-184.539429 89.088l-27.867428-27.940572A38.838857 38.838857 0 0 0 146.285714 85.796571l-54.930285 54.564572a39.277714 39.277714 0 1 0 53.686857 57.417143l27.574857 27.282285A415.744 415.744 0 0 0 73.142857 494.006857a431.177143 431.177143 0 0 0 388.827429 430.811429v-78.116572A349.842286 349.842286 0 0 1 152.868571 528.822857h77.165715v-58.368h-76.8A348.891429 348.891429 0 0 1 471.04 151.990857v77.165714h58.075429v-77.531428A349.622857 349.622857 0 0 1 847.945143 460.8h78.409143a431.762286 431.762286 0 0 0-109.202286-256.365714z" p-id="6199" fill="#2c2c2c"></path><path d="M529.115429 468.553143V305.737143H471.04v163.474286a58.368 58.368 0 0 0 31.451429 108.544 59.026286 59.026286 0 0 0 55.808-43.885715 58.368 58.368 0 0 0-28.233143-65.316571h-0.950857z" p-id="6200" fill="#2c2c2c"></path></svg>