<?xml version="1.0" standalone="no"?><!DOCTYPE svg PUBLIC "-//W3C//DTD SVG 1.1//EN" "http://www.w3.org/Graphics/SVG/1.1/DTD/svg11.dtd"><svg t="1716603999471" class="icon" viewBox="0 0 1024 1024" version="1.1" xmlns="http://www.w3.org/2000/svg" p-id="57548" xmlns:xlink="http://www.w3.org/1999/xlink" width="200" height="200"><path d="M510.6688 81.2032a424.704 424.704 0 1 0 424.96 424.96 424.96 424.96 0 0 0-424.96-424.96z m0 757.248a332.544 332.544 0 1 1 332.8-332.544 332.8 332.8 0 0 1-332.8 332.544z" fill="#FC5B67" p-id="57549"></path><path d="M659.3536 357.2224a46.08 46.08 0 0 0-65.1264 0L510.6688 440.7808 427.1104 357.2224A46.08 46.08 0 1 0 361.984 422.4L445.44 505.9072l-83.456 83.5584a46.08 46.08 0 0 0 65.1264 65.1776l83.5584-83.5584 83.5584 83.5584a46.08 46.08 0 1 0 65.1264-65.1776l-83.5072-83.5584 83.5072-83.5072a46.08 46.08 0 0 0 0-65.1776z" fill="#FC5B67" p-id="57550"></path></svg>