<?xml version="1.0" standalone="no"?><!DOCTYPE svg PUBLIC "-//W3C//DTD SVG 1.1//EN" "http://www.w3.org/Graphics/SVG/1.1/DTD/svg11.dtd"><svg t="1716604059955" class="icon" viewBox="0 0 1024 1024" version="1.1" xmlns="http://www.w3.org/2000/svg" p-id="63258" xmlns:xlink="http://www.w3.org/1999/xlink" width="200" height="200"><path d="M170.666667 128a85.333333 85.333333 0 0 0-85.333334 85.333333v597.333334a85.333333 85.333333 0 0 0 85.333334 85.333333h682.666666a85.333333 85.333333 0 0 0 85.333334-85.333333v-597.333334a85.333333 85.333333 0 0 0-85.333334-85.333333H170.666667z m0-85.333333h682.666666a170.666667 170.666667 0 0 1 170.666667 170.666666v597.333334a170.666667 170.666667 0 0 1-170.666667 170.666666H170.666667a170.666667 170.666667 0 0 1-170.666667-170.666666v-597.333334a170.666667 170.666667 0 0 1 170.666667-170.666666z" fill="#007DEA" p-id="63259"></path><path d="M145.066667 302.08h69.12v419.84H145.066667V302.08z m189.269333 195.84h102.144c25.6-0.426667 44.970667-7.68 57.856-21.930667a67.669333 67.669333 0 0 0 18.432-46.08 75.946667 75.946667 0 0 0-7.509333-35.413333 55.296 55.296 0 0 0-21.845334-20.48 92.416 92.416 0 0 0-49.408-11.690667H334.336v135.594667z m-69.12-195.84h165.034667c17.92 0 35.242667 1.536 51.882666 4.608 16.64 4.096 33.536 12.288 50.602667 24.746667 14.421333 9.386667 26.112 22.869333 34.986667 40.362666 9.386667 16.896 14.08 36.864 14.08 59.904 0 31.061333-11.861333 59.392-35.584 84.906667-24.405333 26.88-59.989333 40.704-106.922667 41.472h-104.96v163.84h-69.12V302.08zM584.277333 512c0-48.725333 1.621333-81.408 4.693334-97.877333 3.413333-16.554667 8.533333-29.866667 15.36-40.106667 11.093333-19.285333 28.757333-36.608 53.077333-51.712 23.978667-15.36 53.845333-23.296 89.685333-23.637333 36.266667 0.341333 66.56 8.277333 90.624 23.637333 23.978667 15.104 41.301333 32.426667 51.882667 51.797333 7.68 10.24 13.056 23.466667 15.957333 40.021334 2.730667 16.469333 4.096 49.152 4.096 97.877333 0 47.957333-1.365333 80.384-4.096 97.28a92.416 92.416 0 0 1-15.957333 40.618667c-10.581333 19.370667-27.904 36.437333-51.882667 51.2-24.149333 15.36-54.357333 23.466667-90.624 24.234666-35.84-0.768-65.706667-8.789333-89.6-24.149333-24.405333-14.848-42.154667-31.914667-53.162666-51.2a453.802667 453.802667 0 0 1-9.130667-18.176 110.848 110.848 0 0 1-6.229333-22.528c-3.072-16.896-4.693333-49.322667-4.693334-97.28z m69.376 0c0 41.301333 1.706667 69.12 5.034667 83.797333 2.901333 14.506667 8.874667 26.368 17.834667 35.413334a80.042667 80.042667 0 0 0 28.757333 20.992c11.605333 6.314667 25.6 9.472 41.813333 9.472 16.469333 0 30.72-3.157333 42.837334-9.472a75.178667 75.178667 0 0 0 27.477333-20.992 71.594667 71.594667 0 0 0 18.432-35.413334c3.157333-14.592 4.693333-42.496 4.693333-83.797333s-1.536-69.376-4.693333-84.394667a71.338667 71.338667 0 0 0-18.432-34.816 80.810667 80.810667 0 0 0-27.477333-21.589333 107.690667 107.690667 0 0 0-42.837334-8.874667c-16.213333 0.341333-30.208 3.328-41.813333 8.874667-11.946667 5.802667-21.504 12.970667-28.757333 21.589333a67.328 67.328 0 0 0-17.92 34.816c-3.242667 15.018667-4.949333 43.093333-4.949334 84.394667z" fill="#007DEA" p-id="63260"></path></svg>