<?xml version="1.0" standalone="no"?><!DOCTYPE svg PUBLIC "-//W3C//DTD SVG 1.1//EN" "http://www.w3.org/Graphics/SVG/1.1/DTD/svg11.dtd"><svg t="1715731227099" class="icon" viewBox="0 0 1024 1024" version="1.1" xmlns="http://www.w3.org/2000/svg" p-id="7906" xmlns:xlink="http://www.w3.org/1999/xlink" width="200" height="200"><path d="M92.9 273.5c-21.7 0-34.1 12.2-34.1 33.4V717c0 21.3 12.4 33.4 34.1 33.4 22.5 0 35.4-12.4 35.4-34.1V307c0-11.5-3.3-20.1-9.8-25.7-6.1-5.2-14.7-7.8-25.6-7.8zM364.5 280.7H261.8c-18.4 0-30.1 2.7-36.6 8.6-6.7 6.1-9.9 16.5-9.9 32v393.8c0 9.5 2.6 17.7 7.8 24.3 5.7 7.4 15 11.1 27.6 11.1 11.9 0 20.9-3.4 26.6-10.1 5.4-6.3 8.1-14.8 8.1-25.3V575h79c101.5 0 153-50 153-148.5 0-49.7-12.8-86.9-38.1-110.5-24.9-23.4-63.6-35.3-114.8-35.3z m64.6 211.5C416.8 505.3 395 512 364.5 512h-79V345h79c27.4 0 48.4 6.4 62.6 19.1 13.9 12.3 20.9 33.6 20.9 63.1 0 29.9-6.3 51.7-18.9 65zM952.5 418.7c-8.5-29.6-21.4-55.9-38.2-78.1-17.1-22.5-38.7-40.6-64.3-53.7-25.7-13.2-56.1-19.9-90.4-19.9-34.7 0-65.4 6.7-91.3 19.9-25.9 13.1-47.6 31.2-64.6 53.7-16.9 22.3-29.6 48.6-37.6 78.3-8 29.3-12 60.5-12 92.8 0 32.8 4.3 64.2 12.7 93.6 8.5 29.5 21.4 55.8 38.3 78.1 17 22.5 38.8 40.6 64.6 53.7 25.9 13.2 56.2 19.9 90 19.9 34.7 0 65.3-6.7 91.1-19.9 25.6-13.1 47.3-31.3 64.3-54 16.9-22.4 29.6-48.7 38-78.2 8.2-29.1 12.3-60.4 12.3-93.2-0.1-32.4-4.4-63.6-12.9-93z m-192.9-87.4c23.4 0 43.8 4.9 60.6 14.7 17.1 9.8 31.3 23.2 42.4 39.6 11.2 16.8 19.7 36.4 25 58.1 5.4 22.1 8.2 45.6 8.2 69.9 0 26.9-3 51.7-8.8 73.7-5.7 21.7-14.4 40.5-25.8 55.9-11.2 15.2-25.3 27.1-42.1 35.5-16.8 8.4-36.8 12.7-59.5 12.7-23.8 0-44.4-4.9-61.3-14.7-17.1-9.8-31.2-23.1-42-39.5-11.1-16.8-19.4-36.2-24.7-57.6-5.4-21.7-8.2-44.6-8.2-67.9 0-23.8 2.8-46.9 8.2-68.9 5.4-21.6 13.8-40.9 25-57.4 11.1-16.3 25.4-29.6 42.4-39.4 16.8-9.7 37.2-14.7 60.6-14.7z" fill="#2c2c2c" p-id="7907" data-spm-anchor-id="a313x.search_index.0.i0.2de23a81al9Lzt" class=""></path></svg>