<?xml version="1.0" standalone="no"?><!DOCTYPE svg PUBLIC "-//W3C//DTD SVG 1.1//EN" "http://www.w3.org/Graphics/SVG/1.1/DTD/svg11.dtd"><svg t="1716604456501" class="icon" viewBox="0 0 1024 1024" version="1.1" xmlns="http://www.w3.org/2000/svg" p-id="89760" data-spm-anchor-id="a313x.search_index.0.i17.1fcd3a81LOpBjY" xmlns:xlink="http://www.w3.org/1999/xlink" width="200" height="200"><path d="M518.144 946.176c-237.568 0-431.104-193.536-431.104-431.104C87.04 276.48 280.576 82.944 518.144 82.944S949.248 276.48 949.248 515.072c0 237.568-193.536 431.104-431.104 431.104z m0-793.6c-199.68 0-362.496 162.816-362.496 362.496s162.816 362.496 362.496 362.496S880.64 714.752 880.64 515.072c0-200.704-162.816-362.496-362.496-362.496z" fill="#548de0" p-id="89761" data-spm-anchor-id="a313x.search_index.0.i18.1fcd3a81LOpBjY" class=""></path><path d="M672.768 566.272H531.456c-35.84 0-65.536-29.696-65.536-65.536V289.792c0-19.456 15.36-34.816 34.816-34.816s34.816 15.36 34.816 34.816v206.848h138.24c19.456 0 34.816 15.36 34.816 34.816-1.024 19.456-16.384 34.816-35.84 34.816z" fill="#548de0" p-id="89762" data-spm-anchor-id="a313x.search_index.0.i19.1fcd3a81LOpBjY" class=""></path><path d="M87.04 273.408c-13.312 0-26.624-5.12-36.864-15.36-20.48-20.48-20.48-53.248 0-72.704L153.6 80.896c20.48-20.48 53.248-20.48 72.704 0 20.48 20.48 20.48 53.248 0 72.704L122.88 258.048c-10.24 10.24-22.528 15.36-35.84 15.36zM949.248 273.408c-13.312 0-26.624-5.12-36.864-15.36L808.96 154.624c-20.48-20.48-20.48-53.248 0-72.704 20.48-20.48 53.248-20.48 72.704 0l104.448 102.4c20.48 20.48 20.48 53.248 0 72.704-10.24 11.264-23.552 16.384-36.864 16.384z" fill="#FFA028" p-id="89763"></path></svg>